<svg xmlns="http://www.w3.org/2000/svg" viewBox="0 0 48 48">
  <!-- 얼굴 -->
  <circle cx="24" cy="20" r="14" fill="#f0c070"/>
  <!-- 머리카락 -->
  <path d="M10,18 Q10,6 24,6 Q38,6 38,18" fill="#4a3728" stroke="none"/>
  <!-- 눈 -->
  <circle cx="18" cy="20" r="2" fill="#333"/>
  <circle cx="30" cy="20" r="2" fill="#333"/>
  <!-- 눈썹 -->
  <line x1="15" y1="16" x2="21" y2="15" stroke="#4a3728" stroke-width="1.5" stroke-linecap="round"/>
  <line x1="27" y1="15" x2="33" y2="16" stroke="#4a3728" stroke-width="1.5" stroke-linecap="round"/>
  <!-- 코 -->
  <path d="M23,22 Q24,25 25,22" fill="none" stroke="#c0956a" stroke-width="1.2"/>
  <!-- 입 -->
  <path d="M20,27 Q24,29 28,27" fill="none" stroke="#c07060" stroke-width="1.2" stroke-linecap="round"/>
  <!-- 수염 -->
  <path d="M14,28 Q16,32 20,30 Q24,34 28,30 Q32,32 34,28 Q34,40 24,42 Q14,40 14,28Z" fill="#5a4030"/>
  <!-- 콧수염 -->
  <path d="M18,27 Q21,26 24,28 Q27,26 30,27" fill="#4a3728" stroke="none"/>
</svg>
